<svg width="72" height="48" viewBox="0 0 72 48" fill="none" xmlns="http://www.w3.org/2000/svg">
<g clip-path="url(#clip0_55_338)">
<path d="M66 0H6C2.68629 0 0 2.68629 0 6V42C0 45.3137 2.68629 48 6 48H66C69.3137 48 72 45.3137 72 42V6C72 2.68629 69.3137 0 66 0Z" fill="#016FD0"/>
<path fill-rule="evenodd" clip-rule="evenodd" d="M41.292 40.1813V23.0771L71.7346 23.1045V27.8292L68.216 31.5893L71.7346 35.384V40.2089H66.1167L63.1312 36.9144L60.1669 40.2214L41.292 40.1813Z" fill="#FFFFFE"/>
<path fill-rule="evenodd" clip-rule="evenodd" d="M43.3252 38.3066V24.96H54.6421V28.0346H46.9894V30.1217H54.4596V33.1452H46.9894V35.1951H54.6421V38.3066H43.3252Z" fill="#016FD0"/>
<path fill-rule="evenodd" clip-rule="evenodd" d="M54.5857 38.3063L60.8477 31.6253L54.5854 24.96H59.4324L63.2589 29.1901L67.0962 24.96H71.7347V25.065L65.6061 31.6253L71.7347 38.117V38.3063H67.0495L63.1552 34.0338L59.3008 38.3063H54.5857Z" fill="#016FD0"/>
<path fill-rule="evenodd" clip-rule="evenodd" d="M42.7121 7.89551H50.0503L52.6277 13.7481V7.89551H61.6872L63.2495 12.2802L64.817 7.89551H71.7348V24.9997H35.1753L42.7121 7.89551Z" fill="#FFFFFE"/>
<path fill-rule="evenodd" clip-rule="evenodd" d="M44.1012 9.75391L38.1792 23.0894H42.2409L43.3582 20.4189H49.412L50.5285 23.0894H54.6912L48.7938 9.75391H44.1012ZM44.6101 17.4262L46.3861 13.181L48.1608 17.4262H44.6101Z" fill="#016FD0"/>
<path fill-rule="evenodd" clip-rule="evenodd" d="M54.6357 23.0872V9.75195L60.3451 9.77158L63.2829 17.9698L66.2398 9.75195H71.7346V23.0872L68.1988 23.1185V13.9585L64.8611 23.0872H61.6337L58.2267 13.9272V23.0872H54.6357Z" fill="#016FD0"/>
</g>
<defs>
<clipPath id="clip0_55_338">
<rect width="72" height="48" fill="white"/>
</clipPath>
</defs>
</svg>
