<svg width="72" height="48" viewBox="0 0 72 48" fill="none" xmlns="http://www.w3.org/2000/svg">
<g clip-path="url(#clip0_55_348)">
<path d="M65.9917 47.2498L65.9982 47.2498C68.8634 47.2743 71.2142 44.9318 71.25 42.0125L71.25 6.01891C71.2385 4.60707 70.6766 3.25851 69.6892 2.27041C68.7043 1.28481 67.3768 0.738446 65.9917 0.750213L6.00191 0.750185C4.62328 0.738447 3.29573 1.28481 2.31084 2.27041C1.32343 3.25851 0.761514 4.60707 0.750025 6.01279L0.75 41.9811C0.761514 43.3929 1.32343 44.7415 2.31084 45.7296C3.29573 46.7152 4.62328 47.2615 6.0083 47.2498H65.9917ZM65.9886 48.7498C65.9875 48.7498 65.9864 48.7498 65.9853 48.7498L65.9917 48.7498H65.9886Z" fill="white" stroke="black" stroke-opacity="0.2" stroke-width="0.5"/>
<path d="M30.0062 6.15542V6.10742H42.0062V6.15542C51.4125 6.84374 58.6925 14.676 58.6925 24.1074C58.6925 33.5389 51.4125 41.3711 42.0062 42.0594V42.1074H30.0062V42.0594C20.5999 41.3711 13.3198 33.5389 13.3198 24.1074C13.3198 14.676 20.5999 6.84374 30.0062 6.15542Z" fill="#0165AC"/>
<path d="M34.8064 34.2838C39.1123 32.7529 41.9886 28.6777 41.9886 24.1078C41.9886 19.5379 39.1123 15.4627 34.8064 13.9318V34.2838ZM27.6064 13.9318C23.3006 15.4627 20.4243 19.5379 20.4243 24.1078C20.4243 28.6777 23.3006 32.7529 27.6064 34.2838V13.9318ZM31.2064 39.7078C22.5908 39.7078 15.6064 32.7235 15.6064 24.1078C15.6064 15.4922 22.5908 8.50781 31.2064 8.50781C39.8221 8.50781 46.8064 15.4922 46.8064 24.1078C46.8064 32.7235 39.8221 39.7078 31.2064 39.7078Z" fill="white"/>
</g>
<defs>
<clipPath id="clip0_55_348">
<rect width="72" height="48" fill="white"/>
</clipPath>
</defs>
</svg>
