<svg width="72" height="48" viewBox="0 0 72 48" fill="none" xmlns="http://www.w3.org/2000/svg">
<g clip-path="url(#clip0_55_357)">
<path d="M65.9917 47.2498L65.9982 47.2498C68.8634 47.2743 71.2142 44.9318 71.25 42.0125L71.25 6.01891C71.2385 4.60707 70.6766 3.25851 69.6892 2.27041C68.7043 1.28481 67.3768 0.738446 65.9917 0.750213L6.00191 0.750185C4.62328 0.738447 3.29573 1.28481 2.31084 2.27041C1.32343 3.25851 0.761514 4.60707 0.750025 6.01279L0.75 41.9811C0.761514 43.3929 1.32343 44.7415 2.31084 45.7296C3.29573 46.7152 4.62328 47.2615 6.0083 47.2498H65.9917ZM65.9886 48.7498C65.9875 48.7498 65.9864 48.7498 65.9853 48.7498L65.9917 48.7498H65.9886Z" fill="white" stroke="black" stroke-opacity="0.2" stroke-width="0.5"/>
<path d="M37.8374 47.9995H65.9919C67.5722 48.0127 69.0931 47.3976 70.2199 46.2894C71.3467 45.1813 71.987 43.6709 72.0002 42.0905V35.0146C61.3687 41.1176 49.8385 45.5 37.8374 47.9995Z" fill="#F27712"/>
<path d="M69.5174 27.8898H66.9601L64.0802 24.0912H63.807V27.8898H61.7215V18.4553H64.8001C67.2084 18.4553 68.5988 19.4484 68.5988 21.236C68.5988 22.7008 67.7298 23.6443 66.1657 23.9422L69.5174 27.8898ZM66.4388 21.3105C66.4388 20.3919 65.7436 19.9201 64.4526 19.9201H63.807V22.7753H64.4029C65.7436 22.7753 66.4388 22.2788 66.4388 21.3105ZM54.4222 18.4553H60.3312V20.0443H56.5077V22.1546H60.1822V23.7684H56.5077V26.3257H60.3312V27.9146H54.4222V18.4553ZM47.7188 28.1381L43.2002 18.4305H45.4843L48.3395 24.7863L51.2195 18.4305H53.4539L48.8857 28.1381H47.7684H47.7188ZM28.825 28.1132C25.647 28.1132 23.1643 25.9532 23.1643 23.1477C23.1643 20.4167 25.6967 18.207 28.8746 18.207C29.7684 18.207 30.5133 18.3808 31.4319 18.7781V20.9629C30.7362 20.2794 29.8002 19.8961 28.825 19.8953C26.8388 19.8953 25.3243 21.3353 25.3243 23.1477C25.3243 25.0594 26.8139 26.425 28.9243 26.425C29.8677 26.425 30.5877 26.127 31.4319 25.3822V27.567C30.4884 27.9643 29.6939 28.1132 28.825 28.1132ZM22.5188 25.0098C22.5188 26.847 21.0043 28.1132 18.8195 28.1132C17.2305 28.1132 16.0884 27.567 15.1202 26.3257L16.4857 25.1588C16.9574 26.0029 17.7519 26.425 18.745 26.425C19.6884 26.425 20.3588 25.8539 20.3588 25.1091C20.3588 24.687 20.1602 24.3643 19.7381 24.116C19.2753 23.8914 18.7934 23.7086 18.2981 23.5698C16.3367 22.9491 15.6664 22.2788 15.6664 20.9629C15.6664 19.4236 17.1064 18.2567 18.9933 18.2567C20.185 18.2567 21.2526 18.6291 22.1464 19.3243L21.0539 20.5657C20.621 20.091 20.0081 19.8206 19.3657 19.8208C18.4719 19.8208 17.8264 20.2677 17.8264 20.8636C17.8264 21.3601 18.1988 21.6332 19.4402 22.0553C21.8236 22.8001 22.5188 23.4953 22.5188 25.0346V25.0098ZM12.265 18.4553H14.3505V27.9146H12.265V18.4553ZM5.56153 27.9146H2.48291V18.4553H5.56153C8.93808 18.4553 11.2719 20.3919 11.2719 23.1725C11.2719 24.5877 10.5767 25.9284 9.36015 26.8222C8.31739 27.567 7.1505 27.9146 5.5367 27.9146H5.56153ZM7.99463 20.8139C7.29946 20.2677 6.50498 20.0691 5.13946 20.0691H4.56843V26.3257H5.13946C6.48015 26.3257 7.32429 26.0774 7.99463 25.5808C8.71463 24.985 9.1367 24.0912 9.1367 23.1725C9.1367 22.2539 8.71463 21.385 7.99463 20.8139Z" fill="black"/>
<path d="M37.2414 18.207C34.5104 18.207 32.2759 20.3919 32.2759 23.0981C32.2759 25.9781 34.4111 28.1381 37.2414 28.1381C40.0221 28.1381 42.2069 25.9532 42.2069 23.1725C42.2069 20.3919 40.0469 18.207 37.2414 18.207Z" fill="#F27712"/>
</g>
<defs>
<clipPath id="clip0_55_357">
<rect width="72" height="48" fill="white"/>
</clipPath>
</defs>
</svg>
