<svg width="72" height="48" viewBox="0 0 72 48" fill="none" xmlns="http://www.w3.org/2000/svg">
<g clip-path="url(#clip0_55_367)">
<path d="M0.643066 48H14.7859C18.0034 48 21.8574 44.416 21.8574 41.6V0H7.7145C4.497 0 0.643066 3.584 0.643066 9.6V48Z" fill="#047AB1"/>
<path d="M8.66914 32.448C5.954 32.4485 3.25225 32.1038 0.643066 31.424V27.904C2.6678 29.0371 4.98216 29.6765 7.36092 29.76C10.0834 29.76 11.6038 28.032 11.6038 25.664V16H18.3216V25.664C18.3216 29.44 16.1295 32.448 8.66914 32.448V32.448Z" fill="white"/>
<path d="M25.3931 48H39.5359C42.7534 48 46.6073 44.416 46.6073 41.6V0H32.4645C29.247 0 25.3931 3.584 25.3931 9.6V48Z" fill="#D42D06"/>
<path d="M25.3931 18.2402C27.4438 16.4482 30.9795 15.3282 36.7074 15.5842C39.8188 15.7122 43.0716 16.5442 43.0716 16.5442V20.0962C41.2111 19.0777 39.1199 18.4541 36.9549 18.2722C32.6059 17.9202 29.9541 20.1282 29.9541 24.0002C29.9541 27.8722 32.6059 30.0802 36.9549 29.7602C39.1212 29.562 41.2111 28.9278 43.0716 27.9042V31.4242C43.0716 31.4242 39.8188 32.2882 36.7074 32.4162C30.9795 32.6722 27.4438 31.5522 25.3931 29.7602V18.2402Z" fill="white"/>
<path d="M50.1431 48H64.2859C67.5034 48 71.3574 44.416 71.3574 41.6V0H57.2145C53.997 0 50.1431 3.584 50.1431 9.6V48Z" fill="#67B637"/>
<path d="M67.8216 27.84C67.8216 30.4 65.6295 32 62.6949 32H50.1431V16H61.5634L62.3766 16.032C64.9577 16.16 66.867 17.536 66.867 19.904C66.867 21.76 65.5588 23.36 63.1899 23.744V23.84C65.8063 24 67.8216 25.504 67.8216 27.84ZM58.8056 18.528C58.6534 18.5074 58.4998 18.4967 58.3459 18.496H54.1031V22.528H58.8056C59.6895 22.336 60.432 21.6 60.432 20.512C60.432 19.424 59.6895 18.688 58.8056 18.528V18.528ZM59.3359 25.056C59.1489 25.0294 58.9595 25.0187 58.7702 25.024H54.1031V29.408H58.7702L59.3359 29.344C60.2199 29.152 60.9624 28.32 60.9624 27.2C60.9624 26.08 60.2552 25.28 59.3359 25.056V25.056Z" fill="white"/>
</g>
<defs>
<clipPath id="clip0_55_367">
<rect width="72" height="48" fill="white"/>
</clipPath>
</defs>
</svg>
