<svg width="72" height="48" viewBox="0 0 72 48" fill="none" xmlns="http://www.w3.org/2000/svg">
<g clip-path="url(#clip0_55_318)">
<path d="M66 0H6C2.68629 0 0 2.68629 0 6V42C0 45.3137 2.68629 48 6 48H66C69.3137 48 72 45.3137 72 42V6C72 2.68629 69.3137 0 66 0Z" fill="#252525"/>
<path d="M27 39C35.2843 39 42 32.2843 42 24C42 15.7157 35.2843 9 27 9C18.7157 9 12 15.7157 12 24C12 32.2843 18.7157 39 27 39Z" fill="#EB001B"/>
<path d="M45 39C53.2843 39 60 32.2843 60 24C60 15.7157 53.2843 9 45 9C36.7157 9 30 15.7157 30 24C30 32.2843 36.7157 39 45 39Z" fill="#F79E1B"/>
<path fill-rule="evenodd" clip-rule="evenodd" d="M36 11.999C39.6433 14.7356 42 19.0927 42 24.0001C42 28.9076 39.6433 33.2646 36 36.0012C32.3567 33.2646 30 28.9076 30 24.0001C30 19.0927 32.3567 14.7356 36 11.999V11.999Z" fill="#FF5F00"/>
</g>
<defs>
<clipPath id="clip0_55_318">
<rect width="72" height="48" fill="white"/>
</clipPath>
</defs>
</svg>
