<svg width="72" height="48" viewBox="0 0 72 48" fill="none" xmlns="http://www.w3.org/2000/svg">
<path d="M13.6376 0H31.0189C33.4452 0 34.9542 2.17699 34.3882 4.85673L26.296 43.1024C25.7249 45.7728 23.2957 47.9517 20.8677 47.9517H3.48807C1.06518 47.9517 -0.447272 45.7728 0.118732 43.1024L8.21437 4.85673C8.78037 2.17699 11.2083 0 13.6376 0" fill="#DD2423"/>
<path d="M29.5725 0H49.5606C51.9865 0 50.8926 2.17699 50.3219 4.85673L42.2309 43.1024C41.6632 45.7728 41.8403 47.9517 39.4094 47.9517H19.4213C16.9904 47.9517 15.486 45.7728 16.0571 43.1024L24.1476 4.85673C24.7221 2.17699 27.145 0 29.5725 0" fill="#16315E"/>
<path d="M48.768 0H66.1493C68.579 0 70.0881 2.17699 69.5174 4.85673L61.4264 43.1024C60.8553 45.7728 58.4244 47.9517 55.9952 47.9517H38.6219C36.1909 47.9517 34.6831 45.7728 35.2525 43.1024L43.3448 4.85673C43.9108 2.17699 46.3371 0 48.768 0" fill="#036862"/>
<path d="M18.1771 12.257C16.3897 12.277 15.8618 12.257 15.6932 12.2131C15.6284 12.5522 14.4222 18.677 14.4188 18.6821C14.1591 19.9212 13.9702 20.8045 13.3284 21.3749C12.964 21.7065 12.5387 21.8664 12.0455 21.8664C11.2529 21.8664 10.7911 21.4332 10.7136 20.6115L10.6987 20.3293C10.6987 20.3293 10.9402 18.6695 10.9402 18.6602C10.9402 18.6602 12.2061 13.0787 12.4327 12.3409C12.4446 12.299 12.448 12.277 12.451 12.257C9.98698 12.2808 9.55019 12.257 9.52011 12.2131C9.50359 12.2733 9.44258 12.6193 9.44258 12.6193L8.15001 18.9102L8.03901 19.4437L7.82422 21.1888C7.82422 21.7065 7.91658 22.129 8.10044 22.4862C8.68932 23.619 10.3691 23.7888 11.3194 23.7888C12.5437 23.7888 13.6923 23.5025 14.4684 22.9797C15.8156 22.1034 16.1681 20.7336 16.4825 19.5164L16.6282 18.892C16.6282 18.892 17.9322 13.095 18.1538 12.3409C18.1623 12.299 18.1657 12.277 18.1771 12.257V12.257ZM22.6139 16.9334C22.2996 16.9334 21.7251 17.0174 21.2091 17.2958C21.0218 17.4016 20.8447 17.5238 20.6579 17.6456L20.8265 16.9754L20.7342 16.8625C19.6398 17.1064 19.395 17.1391 18.3841 17.2958L18.2994 17.3578C18.1821 18.429 18.0778 19.2345 17.6427 21.3401C17.4771 22.1161 17.3051 22.8996 17.1327 23.6738L17.1793 23.7722C18.2151 23.712 18.5294 23.712 19.4297 23.7284L19.5026 23.6411C19.617 22.9962 19.6318 22.8451 19.8851 21.5388C20.0042 20.9194 20.2525 19.5586 20.3749 19.074C20.5999 18.9593 20.8218 18.8464 21.0337 18.8464C21.5383 18.8464 21.4768 19.331 21.4573 19.5241C21.4357 19.8482 21.2519 20.9068 21.0633 21.8158L20.9375 22.4025C20.8498 22.8357 20.7536 23.2569 20.6659 23.6864L20.7041 23.7722C21.7251 23.712 22.0365 23.712 22.9084 23.7284L23.0109 23.6411C23.1685 22.6338 23.2147 22.3642 23.4943 20.8975L23.6349 20.2236C23.9082 18.9047 24.0454 18.236 23.8387 17.6913C23.6201 17.0808 23.0956 16.9334 22.6139 16.9334V16.9334ZM27.5703 18.3143C27.0276 18.429 26.6815 18.5055 26.3375 18.5549C25.9965 18.6151 25.6639 18.6696 25.1394 18.7499L25.0979 18.7914L25.0598 18.8245C25.0051 19.2545 24.967 19.6262 24.8945 20.0631C24.8331 20.5151 24.7386 21.0285 24.5848 21.7663C24.4658 22.3311 24.4044 22.5279 24.3366 22.7266C24.2705 22.9252 24.1976 23.1183 24.0637 23.6737L24.0951 23.725L24.1214 23.7722C24.6115 23.7465 24.9322 23.7283 25.2618 23.725C25.591 23.712 25.9321 23.725 26.4599 23.7283L26.5061 23.6868L26.5557 23.6411C26.6319 23.1402 26.6434 23.0054 26.69 22.7611C26.7362 22.499 26.8158 22.1361 27.0111 21.167C27.1035 20.7119 27.2064 20.2581 27.3022 19.7936C27.4017 19.331 27.5059 18.8753 27.6051 18.4201L27.5903 18.3651L27.5703 18.3143ZM27.5819 16.4525C27.0888 16.1321 26.2232 16.2337 25.6407 16.6763C25.0599 17.11 24.9938 17.7256 25.4852 18.0502C25.9699 18.3618 26.8388 18.2689 27.4163 17.8226C27.9958 17.3796 28.0683 16.7696 27.5819 16.4525V16.4525ZM30.5642 23.8726C31.5619 23.8726 32.5847 23.5699 33.3544 22.6717C33.9467 21.9432 34.2183 20.8594 34.3123 20.4131C34.6186 18.9337 34.3801 18.2431 34.0806 17.8224C33.6256 17.1811 32.8215 16.9755 31.9873 16.9755C31.4857 16.9755 30.291 17.03 29.3577 17.9772C28.6874 18.6605 28.3777 19.5876 28.1909 20.4765C28.0024 21.3822 27.7855 23.0126 29.1475 23.6193C29.5678 23.818 30.1736 23.8726 30.5642 23.8726V23.8726ZM30.4863 20.5441C30.7163 19.4239 30.9879 18.4837 31.681 18.4837C32.2241 18.4837 32.2635 19.1833 32.022 20.3072C31.9788 20.5567 31.7806 21.4843 31.5124 21.8793C31.3251 22.1708 31.1036 22.3475 30.8587 22.3475C30.7858 22.3475 30.3524 22.3475 30.3456 21.6391C30.3422 21.2894 30.4071 20.9321 30.4863 20.5441ZM36.8064 23.7285L36.8843 23.6413C36.9949 22.9963 37.0131 22.8447 37.258 21.5389C37.3804 20.9196 37.6338 19.5587 37.7528 19.0742C37.9782 18.959 38.1964 18.8461 38.415 18.8461C38.9162 18.8461 38.8552 19.3307 38.8353 19.5237C38.817 19.8483 38.6332 20.9065 38.4413 21.8155L38.3222 22.4022C38.2311 22.8359 38.132 23.2565 38.0443 23.6865L38.0824 23.7723C39.1068 23.7122 39.4064 23.7122 40.2833 23.7285L40.3892 23.6413C40.543 22.6335 40.5845 22.3639 40.8726 20.8977L41.0099 20.2233C41.2844 18.9044 41.4234 18.2361 41.22 17.6914C40.9951 17.0809 40.4672 16.9336 39.9923 16.9336C39.6775 16.9336 39.1001 17.017 38.587 17.2959C38.4036 17.4018 38.2197 17.5235 38.0392 17.6457L38.1964 16.9755L38.1121 16.8622C37.0182 17.1066 36.7683 17.1392 35.7587 17.2959L35.6811 17.3579C35.5587 18.4292 35.4592 19.2341 35.0241 21.3402C34.8584 22.1163 34.6864 22.8998 34.5144 23.6739L34.5606 23.7723C35.5981 23.7122 35.9078 23.7122 36.8064 23.7285V23.7285ZM44.3328 23.7721C44.3972 23.4261 44.7798 21.375 44.7832 21.375C44.7832 21.375 45.109 19.87 45.1289 19.8155C45.1289 19.8155 45.2314 19.6588 45.3339 19.5967H45.4848C46.9078 19.5967 48.5147 19.5967 49.7743 18.5768C50.6313 17.8772 51.2172 16.8442 51.4786 15.5888C51.5464 15.281 51.5964 14.9149 51.5964 14.5488C51.5964 14.068 51.5087 13.5923 51.2554 13.2206C50.6131 12.2314 49.3341 12.2132 47.8577 12.2058C47.853 12.2058 47.1298 12.2132 47.1298 12.2132C45.2399 12.2389 44.482 12.2314 44.1706 12.1895C44.1443 12.341 44.0947 12.6106 44.0947 12.6106C44.0947 12.6106 43.4177 16.0645 43.4177 16.0701C43.4177 16.0701 41.7977 23.4135 41.7214 23.7595C43.3716 23.7376 44.0481 23.7376 44.3328 23.7721V23.7721ZM45.5873 17.6366C45.5873 17.6366 46.3071 14.1897 46.3037 14.2028L46.327 14.026L46.3371 13.8912L46.6248 13.9239C46.6248 13.9239 48.1093 14.0642 48.144 14.068C48.73 14.3175 48.9714 14.9606 48.8028 15.8001C48.649 16.5672 48.197 17.2122 47.6162 17.5237C47.1379 17.7877 46.5519 17.8096 45.9482 17.8096H45.5576L45.5873 17.6366ZM50.0689 20.608C49.8787 21.5006 49.6601 23.131 51.0153 23.7121C51.4475 23.9145 51.8347 23.9746 52.2283 23.9527C52.6439 23.928 53.029 23.6986 53.3857 23.3684C53.3535 23.5041 53.3213 23.6398 53.2891 23.776L53.3505 23.8632C54.3253 23.8179 54.6278 23.8179 55.684 23.8268L55.7798 23.7466C55.934 22.7486 56.0793 21.7795 56.4801 19.8702C56.6754 18.9556 56.8703 18.0499 57.0706 17.1391L57.0393 17.0389C55.9488 17.2613 55.6573 17.3089 54.6084 17.4726L54.5287 17.5439C54.5181 17.6367 54.5071 17.7258 54.4969 17.8149C54.3338 17.5248 54.0974 17.2772 53.7327 17.1228C53.2662 16.9209 52.1706 17.1811 51.2288 18.125C50.5671 18.7989 50.2494 19.7223 50.0689 20.608V20.608ZM52.3592 20.6625C52.5926 19.5624 52.8608 18.6315 53.5556 18.6315C53.9949 18.6315 54.2262 19.0778 54.1792 19.8389C54.1419 20.0287 54.1017 20.2288 54.0538 20.455C53.9843 20.7819 53.9089 21.106 53.8356 21.4306C53.761 21.6526 53.6742 21.862 53.5789 22.0015C53.4001 22.2803 52.9747 22.4534 52.7299 22.4534C52.6604 22.4534 52.2316 22.4534 52.2168 21.7575C52.2134 21.411 52.2782 21.0543 52.3592 20.6625ZM64.3192 17.03L64.2349 16.9241C63.1558 17.1647 62.9605 17.203 61.9692 17.3503L61.8963 17.4306C61.8929 17.4436 61.8899 17.4637 61.8848 17.4819L61.8815 17.4637C61.1435 19.338 61.1651 18.9337 60.5643 20.4092C60.5609 20.3421 60.5609 20.3001 60.5575 20.2288L60.4071 17.03L60.3127 16.9241C59.1824 17.1647 59.1557 17.203 58.1118 17.3503L58.0304 17.4306C58.019 17.4688 58.019 17.5108 58.0122 17.5565L58.019 17.5728C58.1495 18.3069 58.1181 18.1432 58.249 19.3016C58.31 19.8701 58.3914 20.4419 58.4524 21.0034C58.5553 21.9431 58.613 22.4057 58.7388 23.8398C58.0338 25.1205 57.8669 25.605 57.1882 26.729L57.1929 26.7401L56.715 27.5721C56.6603 27.6598 56.6108 27.72 56.5413 27.7456C56.465 27.7871 56.3659 27.7946 56.2282 27.7946H55.9634L55.5698 29.2357L56.92 29.2613C57.7127 29.2576 58.2109 28.8495 58.4791 28.3011L59.3281 26.6996H59.3145L59.4039 26.5867C59.975 25.2333 64.3192 17.03 64.3192 17.03V17.03ZM50.0688 35.9562H49.4961L51.616 28.2374H52.3193L52.5426 27.4423L52.5642 28.3265C52.5379 28.8731 52.9285 29.3576 53.9546 29.2774H55.1413L55.5497 27.7911H55.1031C54.8464 27.7911 54.7274 27.7197 54.7422 27.5668L54.7206 26.6672H52.5231V26.6718C51.8126 26.6881 49.6909 26.7469 49.2614 26.8728C48.7415 27.0202 48.1937 27.4539 48.1937 27.4539L48.409 26.6578H46.3534L45.9251 28.2374L43.7767 36.0742H43.3598L42.951 37.5498H47.0452L46.9079 38.0418H48.9254L49.0593 37.5498H49.6253L50.0688 35.9562ZM48.389 29.8058C48.0599 29.9061 47.4473 30.2101 47.4473 30.2101L47.9921 28.2374H49.6253L49.2313 29.6748C49.2313 29.6748 48.7267 29.7074 48.389 29.8058ZM48.4204 32.624C48.4204 32.624 47.9073 32.6949 47.5697 32.7789C47.2371 32.8899 46.6135 33.2396 46.6135 33.2396L47.1761 31.1867H48.8178L48.4204 32.624ZM47.5053 35.9744H45.867L46.3419 34.2419H47.9751L47.5053 35.9744ZM51.4506 31.1867H53.8121L53.4727 32.3965H51.0799L50.7207 33.7191H52.8144L51.2291 36.1764C51.1181 36.3568 51.0185 36.4207 50.9079 36.4716C50.7969 36.5336 50.6512 36.6063 50.4826 36.6063H49.9017L49.5027 38.0549H51.0219C51.8116 38.0549 52.278 37.6594 52.6225 37.1403L53.7096 35.5025L53.943 37.1655C53.9926 37.477 54.1959 37.6594 54.3336 37.7303C54.4857 37.8142 54.6429 37.9583 54.8649 37.9798C55.103 37.991 55.275 37.9998 55.3894 37.9998H56.1358L56.5841 36.3788H56.2896C56.1206 36.3788 55.8295 36.3475 55.78 36.2892C55.7304 36.2183 55.7304 36.1092 55.7037 35.9432L55.4669 34.2764H54.4971L54.9225 33.7191H57.3106L57.6779 32.3965H55.4669L55.8113 31.1867H58.0156L58.4244 29.6948H51.8527L51.4506 31.1867ZM31.5057 36.3113L32.0569 34.2928H34.3221L34.7361 32.7916H32.4687L32.8148 31.5492H35.0305L35.441 30.0956H29.8971L29.495 31.5492H30.7545L30.4186 32.7916H29.1557L28.7371 34.3185H29.9962L29.2616 36.9889C29.1624 37.3424 29.3082 37.4772 29.4005 37.6413C29.495 37.8013 29.5908 37.9072 29.806 37.9673C30.028 38.0219 30.1801 38.0545 30.3868 38.0545H32.9406L33.3956 36.3915L32.2636 36.5626C32.045 36.5626 31.4396 36.5337 31.5057 36.3113V36.3113ZM31.7655 26.6487L31.1915 27.7909C31.0686 28.0404 30.958 28.1952 30.8585 28.2666C30.7708 28.3267 30.5971 28.3519 30.3454 28.3519H30.0459L29.6455 29.813H30.6403C31.1186 29.813 31.4859 29.62 31.6613 29.5234C31.8498 29.4124 31.8994 29.4758 32.0451 29.321L32.3811 29.0006H35.4873L35.8995 27.4793H33.6258L34.0227 26.6487H31.7655ZM36.3513 36.3406C36.2984 36.2567 36.3365 36.1088 36.4174 35.801L37.2664 32.7076H40.2867C40.7268 32.7006 41.0446 32.695 41.2513 32.6787C41.4733 32.6531 41.7148 32.5658 41.9779 32.4091C42.2495 32.245 42.3884 32.072 42.5058 31.8733C42.6367 31.6751 42.8468 31.2414 43.0273 30.5726L44.0945 26.6579L40.9603 26.678C40.9603 26.678 39.9952 26.8347 39.5703 27.0077C39.1415 27.2008 38.5289 27.7399 38.5289 27.7399L38.8119 26.6668H36.8758L34.1653 36.5626C34.0691 36.9469 34.0047 37.2258 33.9899 37.3932C33.9848 37.5737 34.1966 37.7523 34.3339 37.8871C34.4961 38.0219 34.7359 37.9999 34.966 38.0219C35.2079 38.0419 35.5519 38.0545 36.0268 38.0545H37.5147L37.9714 36.3569L36.6394 36.4954C36.4971 36.4954 36.3941 36.4115 36.3513 36.3406ZM37.8142 30.6183H40.9865L40.7849 31.3141C40.7565 31.3304 40.6887 31.2796 40.3659 31.3216H37.6189L37.8142 30.6183ZM38.4497 28.2846H41.6487L41.4187 29.1227C41.4187 29.1227 39.9109 29.1063 39.6694 29.1553C38.6069 29.3577 37.9862 29.9826 37.9862 29.9826L38.4497 28.2846ZM40.8559 33.6442C40.8296 33.7482 40.7881 33.8116 40.7301 33.8592C40.6657 33.9049 40.5615 33.9212 40.406 33.9212H39.9539L39.9806 33.0739H38.1004L38.0242 37.2166C38.0212 37.5155 38.0475 37.6885 38.2462 37.8271C38.4449 38.0001 39.057 38.022 39.8811 38.022H41.0592L41.4846 36.4713L40.4589 36.5334L40.1179 36.5553C40.0713 36.5334 40.0268 36.5133 39.9772 36.4587C39.934 36.4116 39.8611 36.4405 39.873 36.1416L39.8811 35.0797L40.9567 35.0307C41.5376 35.0307 41.7858 34.8227 41.9976 34.6245C42.1997 34.4347 42.2658 34.2164 42.3421 33.9212L42.5226 32.981H41.0444L40.8559 33.6442Z" fill="#FEFEFE"/>
</svg>
