<svg width="72" height="48" viewBox="0 0 72 48" fill="none" xmlns="http://www.w3.org/2000/svg">
<g clip-path="url(#clip0_55_330)">
<path d="M65.25 0.75H6.75C3.43629 0.75 0.75 3.43629 0.75 6.75V41.25C0.75 44.5637 3.43629 47.25 6.75 47.25H65.25C68.5637 47.25 71.25 44.5637 71.25 41.25V6.75C71.25 3.43629 68.5637 0.75 65.25 0.75Z" fill="white" stroke="black" stroke-opacity="0.2" stroke-width="0.5"/>
<path d="M8.3632 17.7433C6.79377 16.8825 5.00262 16.1902 3 15.7098L3.084 15.3356H11.2949C12.4079 15.3747 13.311 15.7095 13.6048 16.8921L15.3893 25.3998L15.936 27.9622L20.9339 15.3356H26.3304L18.3086 33.8326H12.9119L8.3632 17.7433ZM30.2999 33.8522H25.1965L28.3885 15.3356H33.4917L30.2999 33.8522ZM48.8003 15.7883L48.1063 19.7868L47.6447 19.5901C46.7212 19.2157 45.5022 18.8416 43.8431 18.8811C41.8282 18.8811 40.9246 19.6883 40.9036 20.4764C40.9036 21.3432 41.9968 21.9145 43.7817 22.7618C46.7221 24.0816 48.0859 25.6967 48.0655 27.8046C48.0242 31.6459 44.538 34.1282 39.1832 34.1282C36.8936 34.1083 34.6884 33.6543 33.4914 33.1427L34.2056 28.9861L34.8776 29.282C36.5367 29.9721 37.6284 30.2669 39.666 30.2669C41.1353 30.2669 42.7107 29.6951 42.7308 28.4547C42.7308 27.647 42.0596 27.0555 40.0851 26.1494C38.1534 25.2626 35.5705 23.7855 35.6124 21.1259C35.6342 17.5213 39.1832 15 44.223 15C46.1971 15 47.7937 15.4137 48.8003 15.7883ZM55.5833 27.2925H59.8252C59.6153 26.3667 58.6489 21.9344 58.6489 21.9344L58.2922 20.3389C58.0402 21.0283 57.5996 22.1512 57.6208 22.1117C57.6208 22.1117 56.0035 26.2287 55.5833 27.2925ZM61.8828 15.3356L66 33.852H61.2747C61.2747 33.852 60.8123 31.7245 60.6658 31.0744H54.1134C53.9239 31.5666 53.0423 33.852 53.0423 33.852H47.6874L55.2679 16.872C55.7931 15.6702 56.718 15.3356 57.9353 15.3356H61.8828Z" fill="#1434CB"/>
</g>
<defs>
<clipPath id="clip0_55_330">
<rect width="72" height="48" fill="white"/>
</clipPath>
</defs>
</svg>
